<svg xmlns="http://www.w3.org/2000/svg">

    <symbol id="google" viewBox="0 0 48 48">
        <path fill="#FFC107" d="M43.611,20.083H42V20H24v8h11.303c-1.649,4.657-6.08,8-11.303,8c-6.627,0-12-5.373-12-12c0-6.627,5.373-12,12-12c3.059,0,5.842,1.154,7.961,3.039l5.657-5.657C34.046,6.053,29.268,4,24,4C12.955,4,4,12.955,4,24c0,11.045,8.955,20,20,20c11.045,0,20-8.955,20-20C44,22.659,43.862,21.35,43.611,20.083z" />
        <path fill="#FF3D00" d="M6.306,14.691l6.571,4.819C14.655,15.108,18.961,12,24,12c3.059,0,5.842,1.154,7.961,3.039l5.657-5.657C34.046,6.053,29.268,4,24,4C16.318,4,9.656,8.337,6.306,14.691z" />
        <path fill="#4CAF50" d="M24,44c5.166,0,9.86-1.977,13.409-5.192l-6.19-5.238C29.211,35.091,26.715,36,24,36c-5.202,0-9.619-3.317-11.283-7.946l-6.522,5.025C9.505,39.556,16.227,44,24,44z" />
        <path fill="#1976D2" d="M43.611,20.083H42V20H24v8h11.303c-0.792,2.237-2.231,4.166-4.087,5.571c0.001-0.001,0.002-0.001,0.003-0.002l6.19,5.238C36.971,39.205,44,34,44,24C44,22.659,43.862,21.35,43.611,20.083z" />
    </symbol>

    <symbol id="freeShipping" viewBox="0 0 62 46">
        <g clip-path="url(#clip0_98_1114)">
            <path d="M49.838 14.887H45.962L47.13 1.48001C47.13 1.45601 47.13 1.43201 47.13 1.40801C47.13 1.40801 47.13 1.40801 47.13 1.40201C47.1299 1.22625 47.0783 1.05437 46.9816 0.907585C46.885 0.7608 46.7474 0.645534 46.586 0.576012H46.578C46.558 0.568012 46.537 0.560009 46.516 0.553009L46.493 0.545013L46.441 0.532013L46.405 0.52301L46.358 0.516014L46.314 0.51001H46.307H46.26H46.228H27.776C27.5373 0.51001 27.3084 0.60483 27.1396 0.773613C26.9708 0.942396 26.876 1.17132 26.876 1.41001C26.876 1.64871 26.9708 1.87763 27.1396 2.04641C27.3084 2.21519 27.5373 2.31001 27.776 2.31001H45.248L43.453 22.909L43 28.113H11.665L12.189 22.703H18.155C18.3937 22.703 18.6226 22.6082 18.7914 22.4394C18.9602 22.2706 19.055 22.0417 19.055 21.803C19.055 21.5643 18.9602 21.3354 18.7914 21.1666C18.6226 20.9978 18.3937 20.903 18.155 20.903H12.364L13.471 9.48101H22.971C23.2097 9.48101 23.4386 9.38619 23.6074 9.21741C23.7762 9.04862 23.871 8.8197 23.871 8.58101C23.871 8.34231 23.7762 8.1134 23.6074 7.94462C23.4386 7.77584 23.2097 7.68101 22.971 7.68101H13.645L14.165 2.31101H24.165C24.4037 2.31101 24.6326 2.21619 24.8014 2.04741C24.9702 1.87863 25.065 1.64971 25.065 1.41101C25.065 1.17232 24.9702 0.943395 24.8014 0.774612C24.6326 0.60583 24.4037 0.511009 24.165 0.511009H13.346C13.1401 0.510993 12.9405 0.581565 12.7803 0.710953C12.6202 0.84034 12.5092 1.02072 12.466 1.22201V1.23101C12.466 1.25301 12.458 1.27601 12.455 1.30001C12.455 1.30701 12.455 1.31401 12.455 1.32201L11.839 7.68101H0.9C0.661305 7.68101 0.432387 7.77584 0.263604 7.94462C0.0948212 8.1134 0 8.34231 0 8.58101C0 8.8197 0.0948212 9.04862 0.263604 9.21741C0.432387 9.38619 0.661305 9.48101 0.9 9.48101H11.659L10.552 20.899H7.335C7.09631 20.899 6.86739 20.9938 6.6986 21.1626C6.52982 21.3314 6.435 21.5603 6.435 21.799C6.435 22.0377 6.52982 22.2666 6.6986 22.4354C6.86739 22.6042 7.09631 22.699 7.335 22.699H10.378L9.778 28.918L8.846 38.534V38.541C8.846 38.554 8.846 38.566 8.846 38.578C8.846 38.59 8.846 38.611 8.846 38.628C8.846 38.651 8.846 38.674 8.846 38.697C8.846 38.704 8.846 38.712 8.846 38.719C8.846 38.742 8.852 38.765 8.857 38.788C8.857 38.795 8.857 38.802 8.857 38.808C8.857 38.814 8.865 38.842 8.87 38.859C8.875 38.876 8.876 38.883 8.879 38.895V38.905C8.92202 39.0377 8.99528 39.1585 9.093 39.258L9.098 39.264L9.128 39.291C9.19058 39.3483 9.26094 39.3964 9.337 39.434L9.385 39.457L9.4 39.463C9.423 39.472 9.445 39.481 9.469 39.488H9.475C9.502 39.496 9.529 39.503 9.556 39.509H9.567C9.593 39.509 9.62 39.518 9.646 39.521C9.67533 39.521 9.70467 39.521 9.734 39.521H13.75C13.9678 41.1716 14.7781 42.6868 16.03 43.7843C17.282 44.8819 18.8901 45.487 20.555 45.487C22.2199 45.487 23.828 44.8819 25.08 43.7843C26.3319 42.6868 27.1422 41.1716 27.36 39.521H41.83C42.0478 41.1716 42.8581 42.6868 44.1101 43.7843C45.362 44.8819 46.9701 45.487 48.635 45.487C50.2999 45.487 51.908 44.8819 53.16 43.7843C54.4119 42.6868 55.2222 41.1716 55.44 39.521H59.457C59.487 39.521 59.517 39.521 59.546 39.521H59.562C59.585 39.521 59.609 39.515 59.632 39.51L59.661 39.503L59.714 39.489L59.749 39.477L59.793 39.461L59.83 39.445L59.869 39.426L59.905 39.407L59.942 39.385L59.975 39.363L60.011 39.336L60.04 39.312L60.076 39.279L60.101 39.255L60.137 39.215L60.156 39.193C60.169 39.177 60.181 39.16 60.193 39.143L60.206 39.126C60.221 39.104 60.234 39.081 60.247 39.058C60.261 39.033 60.273 39.007 60.284 38.981L60.293 38.958C60.3 38.939 60.308 38.921 60.314 38.901C60.32 38.881 60.321 38.876 60.324 38.863C60.327 38.85 60.332 38.833 60.336 38.818C60.34 38.803 60.336 38.79 60.343 38.777C60.35 38.764 60.343 38.753 60.349 38.741C60.387 38.435 61.093 32.769 61.409 29.106C61.409 29.106 61.409 29.099 61.409 29.095C61.5 28.039 61.558 27.15 61.558 26.605C61.5532 23.4983 60.3169 20.5203 58.1199 18.3237C55.923 16.1271 52.9447 14.8912 49.838 14.887ZM45.805 16.687H49.494L49.023 22.097H45.334L45.805 16.687ZM20.561 43.696C19.5599 43.6958 18.5814 43.3988 17.7491 42.8425C16.9168 42.2862 16.2681 41.4956 15.8851 40.5707C15.5021 39.6458 15.402 38.6281 15.5973 37.6462C15.7927 36.6644 16.2748 35.7625 16.9826 35.0546C17.6905 34.3468 18.5924 33.8647 19.5742 33.6693C20.556 33.474 21.5738 33.5741 22.4987 33.9571C23.4236 34.3401 24.2142 34.9888 24.7705 35.8211C25.3268 36.6534 25.6238 37.6319 25.624 38.633C25.6227 39.9754 25.0888 41.2624 24.1396 42.2116C23.1904 43.1608 21.9034 43.6947 20.561 43.696ZM48.635 43.696C47.634 43.6954 46.6556 43.3981 45.8236 42.8415C44.9916 42.285 44.3433 41.4943 43.9606 40.5693C43.5779 39.6444 43.478 38.6267 43.6736 37.645C43.8691 36.6633 44.3514 35.7616 45.0593 35.0539C45.7673 34.3463 46.6692 33.8644 47.6509 33.6692C48.6327 33.474 49.6503 33.5743 50.5751 33.9573C51.4999 34.3404 52.2904 34.9891 52.8466 35.8213C53.4028 36.6535 53.6998 37.632 53.7 38.633C53.6987 39.9757 53.1646 41.2631 52.2149 42.2123C51.2653 43.1616 49.9777 43.6952 48.635 43.696ZM58.659 37.733H55.44C55.2222 36.0824 54.4119 34.5673 53.16 33.4697C51.908 32.3722 50.2999 31.7671 48.635 31.7671C46.9701 31.7671 45.362 32.3722 44.1101 33.4697C42.8581 34.5673 42.0478 36.0824 41.83 37.733H27.366C27.1482 36.0824 26.3379 34.5673 25.086 33.4697C23.834 32.3722 22.2259 31.7671 20.561 31.7671C18.8961 31.7671 17.288 32.3722 16.036 33.4697C14.7841 34.5673 13.9738 36.0824 13.756 37.733H10.733L11.49 29.917H43.827C43.857 29.9185 43.887 29.9185 43.917 29.917H43.933C43.957 29.917 43.98 29.911 44.003 29.906L44.033 29.899L44.087 29.885L44.122 29.873L44.167 29.857L44.2 29.833L44.24 29.814L44.276 29.794L44.313 29.772L44.347 29.749L44.382 29.723L44.413 29.697L44.446 29.667L44.473 29.64L44.505 29.605L44.529 29.577L44.558 29.538L44.579 29.508L44.604 29.466L44.622 29.434C44.63 29.42 44.636 29.405 44.643 29.391C44.65 29.377 44.654 29.368 44.659 29.356C44.664 29.344 44.67 29.327 44.675 29.313C44.68 29.299 44.684 29.287 44.688 29.274C44.692 29.261 44.695 29.246 44.699 29.232C44.703 29.218 44.706 29.203 44.709 29.189C44.712 29.175 44.709 29.16 44.716 29.146C44.723 29.132 44.716 29.116 44.722 29.101C44.728 29.086 44.722 29.101 44.722 29.095L45.174 23.907H49.835C52.598 23.907 53.844 25.339 55.163 26.854C56.252 28.105 57.463 29.5 59.532 29.84C59.273 32.612 58.849 36.173 58.659 37.733ZM59.689 28.033C58.349 27.76 57.524 26.818 56.526 25.67C55.277 24.235 53.752 22.484 50.826 22.157L51.293 16.801C53.6442 17.1533 55.7911 18.3371 57.3438 20.1376C58.8965 21.938 59.752 24.2355 59.755 26.613C59.757 26.948 59.732 27.44 59.689 28.033Z" fill="#006D5B" />
            <path d="M20.564 35.303C19.9086 35.303 19.2678 35.4974 18.7228 35.8615C18.1779 36.2257 17.7531 36.7432 17.5023 37.3488C17.2514 37.9543 17.1858 38.6207 17.3137 39.2635C17.4415 39.9064 17.7572 40.4969 18.2207 40.9604C18.6841 41.4238 19.2746 41.7394 19.9175 41.8673C20.5603 41.9952 21.2267 41.9296 21.8322 41.6787C22.4378 41.4279 22.9553 41.0031 23.3195 40.4582C23.6836 39.9132 23.878 39.2725 23.878 38.617C23.8769 37.7384 23.5275 36.8961 22.9062 36.2748C22.2849 35.6535 21.4426 35.304 20.564 35.303ZM20.564 40.124C20.2662 40.124 19.975 40.0357 19.7273 39.8702C19.4797 39.7047 19.2866 39.4695 19.1726 39.1943C19.0587 38.9191 19.0288 38.6163 19.0869 38.3242C19.1451 38.0321 19.2885 37.7637 19.4991 37.5531C19.7097 37.3425 19.9781 37.199 20.2702 37.1409C20.5623 37.0828 20.8651 37.1126 21.1403 37.2266C21.4155 37.3406 21.6507 37.5337 21.8162 37.7813C21.9817 38.029 22.07 38.3201 22.07 38.618C22.0695 39.0172 21.9106 39.4 21.6283 39.6823C21.346 39.9646 20.9633 40.1235 20.564 40.124Z" fill="#006D5B" />
            <path d="M48.6299 35.303C47.9745 35.303 47.3337 35.4974 46.7888 35.8615C46.2438 36.2257 45.819 36.7432 45.5682 37.3488C45.3173 37.9543 45.2517 38.6207 45.3796 39.2635C45.5075 39.9064 45.8231 40.4969 46.2866 40.9604C46.75 41.4238 47.3405 41.7394 47.9834 41.8673C48.6262 41.9952 49.2926 41.9296 49.8981 41.6787C50.5037 41.4279 51.0213 41.0031 51.3854 40.4582C51.7495 39.9132 51.9439 39.2725 51.9439 38.617C51.9428 37.7384 51.5934 36.8961 50.9721 36.2748C50.3508 35.6535 49.5085 35.304 48.6299 35.303ZM48.6299 40.124C48.332 40.124 48.0409 40.0357 47.7932 39.8702C47.5455 39.7047 47.3525 39.4695 47.2385 39.1943C47.1246 38.9191 47.0947 38.6163 47.1529 38.3242C47.211 38.0321 47.3544 37.7637 47.565 37.5531C47.7756 37.3425 48.044 37.199 48.3361 37.1409C48.6282 37.0828 48.931 37.1126 49.2062 37.2266C49.4814 37.3406 49.7166 37.5337 49.8821 37.7813C50.0476 38.029 50.1359 38.3201 50.1359 38.618C50.1354 39.0172 49.9766 39.4 49.6942 39.6823C49.4119 39.9646 49.0292 40.1235 48.6299 40.124Z" fill="#006D5B" />
            <path d="M8.55689 14.886H4.13789C3.89813 14.886 3.6682 14.9812 3.49866 15.1508C3.32913 15.3203 3.23389 15.5502 3.23389 15.79C3.23389 16.0297 3.32913 16.2597 3.49866 16.4292C3.6682 16.5987 3.89813 16.694 4.13789 16.694H8.55689C8.79664 16.694 9.02658 16.5987 9.19611 16.4292C9.36564 16.2597 9.46089 16.0297 9.46089 15.79C9.46089 15.5502 9.36564 15.3203 9.19611 15.1508C9.02658 14.9812 8.79664 14.886 8.55689 14.886Z" fill="#006D5B" />
        </g>
        <defs>
            <clipPath id="clip0_98_1114">
                <rect width="61.561" height="45" fill="white" transform="translate(0 0.5)"/>
            </clipPath>
        </defs>
    </symbol>

    <symbol id="moneyBack" viewBox="0 0 45 46">
        <g clip-path="url(#clip0_98_1132)">
            <path d="M27.7917 10.8373H27.8443C27.8443 10.8373 27.8034 10.7344 27.7917 10.8373Z" fill="#006D5B" />
            <path d="M15.095 10.8373H15.1475C15.1358 10.7344 15.095 10.8373 15.095 10.8373Z" fill="#006D5B" />
            <path d="M40.4733 14.0745C40.1782 13.6035 39.7175 13.2756 39.1759 13.1511L36.3232 12.4956L37.6404 12.1269C38.7317 11.8215 39.3892 10.6559 39.0833 9.56252C38.7778 8.47118 37.6123 7.81384 36.5188 8.11961L30.3773 9.83849C30.2175 9.54757 29.9901 9.29858 29.7162 9.11331C30.9626 6.79378 32.7583 2.85759 32.7583 1.1642C32.7583 0.7512 32.3679 0.431629 31.9628 0.513279C29.5255 1.00564 27.2531 1.23284 25.0185 1.2085C22.7215 1.18327 19.8629 0.897977 18.0667 0.514773C17.5114 0.396297 17.0658 1.01768 17.3587 1.50583C17.7964 2.23532 18.0645 3.00665 18.2119 3.78405C15.9576 3.85313 13.6198 3.57997 11.8504 2.69517C11.3738 2.45681 10.8112 2.87385 10.8984 3.39829C11.4549 6.737 12.5776 8.69451 13.7032 10.1734H13.6783C12.531 10.1734 11.5976 11.1068 11.5976 12.2541C11.5976 13.3092 12.3873 14.1828 13.4065 14.3164C12.6636 15.5608 11.6025 16.7414 10.4877 17.9803C8.11706 20.615 5.42998 23.6011 4.52593 28.4227C4.09333 30.7298 4.10775 32.8885 4.56891 34.8389C4.9994 36.6599 5.81933 38.3081 7.00577 39.7377C8.58068 41.6355 10.7445 43.1079 13.4369 44.1144C15.8623 45.021 18.6399 45.5002 21.4696 45.5002C24.2993 45.5002 27.077 45.021 29.5023 44.1144C32.1947 43.1079 34.3585 41.6354 35.9334 39.7377C37.1199 38.3081 37.9398 36.66 38.3703 34.8389C38.8314 32.8885 38.8459 30.7297 38.4133 28.4227C37.5092 23.6012 34.8222 20.615 32.4516 17.9804C31.6467 17.086 30.881 16.2332 30.2391 15.3676L38.2441 17.2068C39.0922 17.4017 39.9958 17.0307 40.4643 16.2979C40.893 15.6269 40.8956 14.7484 40.4733 14.0745ZM25.0039 2.53644C27.0485 2.55876 29.1178 2.37999 31.3035 1.99046C30.9028 3.62901 29.6158 6.54329 28.3951 8.76332C27.5491 8.82705 26.843 9.39851 26.5812 10.1734H24.7376C24.696 10.0836 24.6498 9.98527 24.5984 9.87602C24.0284 8.66418 22.842 6.1426 22.842 3.99736C22.842 3.58498 22.4526 3.26523 22.0478 3.34626C21.275 3.50086 20.4248 3.62593 19.5402 3.70433C19.4475 3.15027 19.3036 2.59532 19.0944 2.04952C20.8786 2.32568 23.1261 2.51578 25.0039 2.53644ZM29.3052 10.8373V13.6705C29.3052 14.0855 28.9677 14.4231 28.5526 14.4231C28.1376 14.4231 27.8 14.0856 27.8 13.6705V10.8373C27.8 10.4223 28.1376 10.0847 28.5526 10.0847C28.9677 10.0847 29.3052 10.4224 29.3052 10.8373ZM12.4463 4.37661C14.1064 4.94324 16.1485 5.19452 18.354 5.117L19.67 5.03385C20.2908 4.9769 20.9206 4.8949 21.5551 4.78758C21.7622 6.84194 22.7007 8.95291 23.2709 10.1734H18.8494H17.4525H15.3979C15.3831 10.1501 15.3671 10.1272 15.3491 10.1054C14.2384 8.76921 13.1114 7.22365 12.4463 4.37661ZM31.4643 18.8686C33.7182 21.3733 36.2726 24.2122 37.1081 28.6673C37.8769 32.7675 37.1378 36.2067 34.9114 38.8892C32.1663 42.197 27.1413 44.1719 21.4697 44.1719C15.7981 44.1719 10.773 42.1971 8.02785 38.8893C5.80149 36.2068 5.0625 32.7676 5.8312 28.6673C6.6666 24.2122 9.22115 21.3732 11.475 18.8686C12.8226 17.3708 14.0958 15.9542 14.9118 14.3346H16.5336C16.9004 14.3346 17.1976 14.0373 17.1976 13.6706C17.1976 13.3039 16.9003 13.0066 16.5336 13.0066H13.6782C13.2632 13.0066 12.9256 12.669 12.9256 12.254C12.9256 11.839 13.2632 11.5014 13.6782 11.5014H26.4719V13.0065H19.6987C19.3318 13.0065 19.0347 13.3039 19.0347 13.6705C19.0347 14.0372 19.3319 14.3345 19.6987 14.3345H26.5812C26.859 15.157 27.6374 15.7512 28.5525 15.7512C28.6583 15.7512 28.762 15.7431 28.8636 15.7279C29.6047 16.7999 30.508 17.806 31.4643 18.8686ZM30.6334 11.146L36.8767 9.3986C37.272 9.28777 37.6939 9.52595 37.8043 9.9205C37.9149 10.3159 37.6771 10.7376 37.2824 10.848L33.7144 11.8466C33.6853 11.8548 33.6575 11.8653 33.6305 11.877L30.6334 11.1884V11.146ZM39.4435 15.3473C39.3505 15.7518 38.9465 16.0054 38.5414 15.9123L30.5916 14.0857C30.6189 13.9515 30.6333 13.8127 30.6333 13.6704V12.5509L38.8784 14.4453C39.278 14.5371 39.5353 14.9473 39.4435 15.3473Z" fill="#006D5B" />
            <path d="M25.7196 27.7924C26.6716 27.7924 27.4461 27.0179 27.4461 26.0658V25.0034C27.4461 22.5189 25.593 20.4593 23.1963 20.1343V18.9828C23.1963 18.0309 22.4218 17.2563 21.4697 17.2563C20.5178 17.2563 19.7432 18.0308 19.7432 18.9828V20.2222C17.2825 20.771 15.4933 22.9586 15.4933 25.5346C15.4933 28.5371 17.936 30.9797 20.9384 30.9797H22.0009C23.0992 30.9797 23.993 31.8733 23.993 32.9719C23.993 34.0704 23.0993 34.964 22.0009 34.964H20.4071C19.6015 34.964 18.9462 34.3086 18.9462 33.5031C18.9462 32.5511 18.1717 31.7765 17.2197 31.7765C16.2677 31.7765 15.4932 32.551 15.4932 33.5031C15.4932 35.9876 17.3463 38.0472 19.743 38.3722V39.5237C19.743 40.4756 20.5175 41.2502 21.4696 41.2502C22.4215 41.2502 23.1961 40.4757 23.1961 39.5237V38.2843C25.6568 37.7355 27.446 35.5479 27.446 32.9719C27.446 29.9694 25.0033 27.5268 22.0009 27.5268H20.9384C19.8401 27.5268 18.9463 26.6332 18.9463 25.5346C18.9463 24.4361 19.84 23.5425 20.9384 23.5425H22.5322C23.3378 23.5425 23.9931 24.1979 23.9931 25.0034V26.0658C23.9931 27.0178 24.7677 27.7924 25.7196 27.7924ZM22.5323 22.2145H20.9385C19.1078 22.2145 17.6184 23.7039 17.6184 25.5346C17.6184 27.3654 19.1078 28.8548 20.9385 28.8548H22.001C24.2712 28.8548 26.118 30.7017 26.118 32.9719C26.118 35.0724 24.5449 36.831 22.4589 37.0627C22.1227 37.1001 21.8682 37.3843 21.8682 37.7227V39.5237C21.8682 39.7433 21.6895 39.9221 21.4698 39.9221C21.2502 39.9221 21.0714 39.7433 21.0714 39.5237V37.7529C21.0714 37.3862 20.7742 37.0889 20.4074 37.0889C18.4301 37.0889 16.8216 35.4804 16.8216 33.5032C16.8216 33.2835 17.0004 33.1048 17.22 33.1048C17.4397 33.1048 17.6185 33.2835 17.6185 33.5032C17.6185 35.041 18.8696 36.2921 20.4074 36.2921H22.0011C23.8319 36.2921 25.3213 34.8027 25.3213 32.972C25.3213 31.1412 23.8319 29.6518 22.0011 29.6518H20.9387C18.6685 29.6518 16.8216 27.8049 16.8216 25.5347C16.8216 23.4342 18.3948 21.6756 20.4807 21.4438C20.817 21.4065 21.0714 21.1223 21.0714 20.7839V18.9829C21.0714 18.7633 21.2502 18.5845 21.4698 18.5845C21.6895 18.5845 21.8682 18.7633 21.8682 18.9829V20.7536C21.8682 21.1204 22.1655 21.4177 22.5323 21.4177C24.5095 21.4177 26.118 23.0262 26.118 25.0034V26.0658C26.118 26.2855 25.9393 26.4643 25.7196 26.4643C25.5 26.4643 25.3212 26.2855 25.3212 26.0658V25.0034C25.3212 23.4656 24.0701 22.2145 22.5323 22.2145Z" fill="#006D5B" />
        </g>
        <defs>
            <clipPath id="clip0_98_1132">
                <rect width="45" height="45" fill="white" transform="translate(0 0.5)"/>
            </clipPath>
        </defs>
    </symbol>

    <symbol id="secureCheckout" viewBox="0 0 45 46">
        <g clip-path="url(#clip0_98_1148)">
            <path d="M36.8279 30.5159H32.3184V32.0191H36.8279V30.5159Z" fill="#006D5B" />
            <path d="M30.8152 30.5159H26.3057V32.0191H30.8152V30.5159Z" fill="#006D5B" />
            <path d="M24.8025 30.5159H20.293V32.0191H24.8025V30.5159Z" fill="#006D5B" />
            <path d="M44.3341 16.0876L29.4624 1.21362C29.0401 0.787282 28.4646 0.547712 27.8645 0.548464H27.8577C27.2615 0.548746 26.6905 0.788409 26.2726 1.21362L10.4967 16.9873H2.25477C1.00948 16.9873 0 17.9967 0 19.242V40.2866C0 41.5319 1.00948 42.5413 2.25477 42.5413H13.3903L15.6331 44.7864C16.0554 45.2127 16.6308 45.4523 17.231 45.4515H17.237C17.8334 45.4513 18.4048 45.2117 18.8228 44.7864L21.0701 42.5413H38.3311C39.5764 42.5413 40.5859 41.5319 40.5859 40.2866V23.0255L44.3303 19.2811C44.7577 18.8628 44.999 18.2902 45 17.6923C45.0023 17.0897 44.7623 16.5115 44.3341 16.0876ZM34.7731 8.65212L26.438 16.9873H20.0555L31.5818 5.46086L34.7731 8.65212ZM27.3369 2.27336C27.6227 1.98053 28.0919 1.97489 28.3849 2.26087C28.3891 2.265 28.3933 2.26914 28.3974 2.27336L30.5191 4.39811L17.9292 16.9873H12.6222L27.3369 2.27336ZM17.7586 43.7266C17.6211 43.8702 17.4312 43.9515 17.2325 43.9521C17.031 43.9516 16.8383 43.8704 16.6973 43.7266L15.5166 42.5413H18.9446L17.7586 43.7266ZM39.0827 40.2866C39.0827 40.7016 38.7462 41.0382 38.3311 41.0382H2.25477C1.83971 41.0382 1.50318 40.7016 1.50318 40.2866V29.7643H39.0827V40.2866ZM39.0827 28.2611H1.50318V23.7516H39.0827V28.2611ZM39.0827 22.2484H1.50318V19.242C1.50318 18.827 1.83971 18.4904 2.25477 18.4904H38.3311C38.7462 18.4904 39.0827 18.827 39.0827 19.242V22.2484ZM43.2713 18.2146L40.5859 20.9V19.242C40.5859 17.9967 39.5764 16.9873 38.3311 16.9873H28.5605L35.8328 9.71487L43.2683 17.1504C43.4127 17.2918 43.494 17.4856 43.4938 17.6877C43.4936 17.8862 43.4134 18.0761 43.2713 18.2146Z" fill="#006D5B" />
            <path d="M7.20856 39.5553C7.31829 39.4604 7.42107 39.3576 7.51596 39.2479C8.50984 40.4055 10.2176 40.6254 11.4723 39.7574C12.2822 39.1912 12.7683 38.2684 12.7771 37.2802C12.7771 35.6198 11.4311 34.2738 9.77073 34.2738C9.62154 34.2718 9.47254 34.2844 9.32579 34.3114L9.30625 34.3167C9.29873 34.3167 9.29121 34.3167 9.28445 34.3167C8.5959 34.4311 7.96973 34.7845 7.51596 35.3148C6.42991 34.0589 4.5313 33.9212 3.27548 35.0074C2.01957 36.0934 1.88194 37.9921 2.96808 39.2479C4.05413 40.5038 5.95265 40.6414 7.20856 39.5553ZM9.58058 35.7928C9.64324 35.7809 9.70694 35.7756 9.77073 35.777C10.601 35.777 11.2739 36.45 11.2739 37.2802C11.2732 37.5982 11.1695 37.9075 10.9785 38.1618C10.9515 38.1986 10.9304 38.237 10.8996 38.2753C10.8944 38.2813 10.8868 38.2851 10.8808 38.2911C10.5969 38.6046 10.1937 38.7835 9.77073 38.7834C8.94069 38.7692 8.2792 38.0849 8.29338 37.2548C8.30597 36.5178 8.85106 35.8986 9.58058 35.7928ZM5.26119 35.777C6.09141 35.777 6.76437 36.45 6.76437 37.2802C6.76437 38.1104 6.09141 38.7834 5.26119 38.7834C4.43096 38.7834 3.758 38.1104 3.758 37.2802C3.758 36.45 4.43096 35.777 5.26119 35.777Z" fill="#006D5B" />
        </g>
        <defs>
            <clipPath id="clip0_98_1148">
                <rect width="45" height="45" fill="white" transform="translate(0 0.5)"/>
            </clipPath>
        </defs>
    </symbol>

    <symbol id="onlineSupport" viewBox="0 0 40 46">
        <g clip-path="url(#clip0_98_1161)">
            <path d="M35.0629 15.893C35.0629 11.8104 33.4411 7.895 30.5542 5.00816C27.6674 2.12132 23.752 0.499512 19.6694 0.499512C15.5868 0.499512 11.6714 2.12132 8.78454 5.00816C5.89769 7.895 4.27588 11.8104 4.27588 15.893C3.66217 15.9392 3.06376 16.1069 2.51545 16.3864C1.96714 16.666 1.47987 17.0517 1.08198 17.5212C0.684098 17.9908 0.383529 18.5347 0.197761 19.1215C0.0119921 19.7082 -0.0552708 20.326 -0.000117129 20.939V28.978C-0.000117129 32.741 2.63388 34.109 5.13088 34.109H7.61088C7.83764 34.109 8.05512 34.0189 8.21546 33.8586C8.3758 33.6982 8.46588 33.4808 8.46588 33.254V16.7C8.46588 16.4733 8.3758 16.2558 8.21546 16.0954C8.05512 15.9351 7.83764 15.845 7.61088 15.845H5.98588C5.98588 12.2161 7.42748 8.73573 9.99354 6.16967C12.5596 3.60361 16.0399 2.16201 19.6689 2.16201C23.2978 2.16201 26.7782 3.60361 29.3442 6.16967C31.9103 8.73573 33.3519 12.2161 33.3519 15.845H31.7269C31.5001 15.845 31.2827 15.9351 31.1223 16.0954C30.962 16.2558 30.8719 16.4733 30.8719 16.7V33.228C30.8719 33.4548 30.962 33.6722 31.1223 33.8326C31.2827 33.9929 31.5001 34.083 31.7269 34.083H33.3519C33.1129 39.958 30.2899 41.335 24.6519 41.583V41.01C24.6519 40.5565 24.4717 40.1215 24.151 39.8009C23.8304 39.4802 23.3954 39.3 22.9419 39.3H17.5659C17.1124 39.3 16.6774 39.4802 16.3567 39.8009C16.036 40.1215 15.8559 40.5565 15.8559 41.01V43.79C15.8559 44.2435 16.036 44.6785 16.3567 44.9992C16.6774 45.3199 17.1124 45.5 17.5659 45.5H22.9659C23.4194 45.5 23.8543 45.3199 24.175 44.9992C24.4957 44.6785 24.6759 44.2435 24.6759 43.79V43.29C30.0979 43.042 34.7839 41.922 35.0669 34.028C35.6806 33.9818 36.279 33.8141 36.8273 33.5346C37.3756 33.2551 37.8629 32.8693 38.2608 32.3998C38.6587 31.9302 38.9592 31.3863 39.145 30.7995C39.3308 30.2128 39.398 29.595 39.3429 28.982V20.948C39.3389 17.6 37.2689 16.167 35.0629 15.893ZM6.75588 17.493V32.373H5.08788C4.62643 32.4229 4.15964 32.3688 3.72188 32.2145C3.28411 32.0602 2.8865 31.8098 2.5583 31.4816C2.23009 31.1534 1.97965 30.7558 1.82538 30.318C1.67111 29.8803 1.61695 29.4135 1.66688 28.952V20.913C1.61771 20.4517 1.6724 19.9853 1.82694 19.5478C1.98148 19.1104 2.23194 18.7131 2.55998 18.3851C2.88801 18.0571 3.2853 17.8066 3.72271 17.6521C4.16013 17.4975 4.62659 17.4428 5.08788 17.492L6.75588 17.493ZM22.9619 42.5V43.8H17.5619V41.019H22.9619V42.5ZM37.6279 28.978C37.6772 29.4393 37.6226 29.9058 37.4682 30.3432C37.3138 30.7807 37.0635 31.178 36.7355 31.5062C36.4076 31.8343 36.0104 32.0849 35.573 32.2396C35.1356 32.3942 34.6692 32.449 34.2079 32.4H32.5829V17.552H34.2499C34.7113 17.5021 35.1781 17.5562 35.6159 17.7105C36.0536 17.8648 36.4513 18.1152 36.7795 18.4434C37.1077 18.7716 37.3581 19.1692 37.5124 19.607C37.6667 20.0448 37.7208 20.5116 37.6709 20.973L37.6279 28.978Z" fill="#006D5B" />
        </g>
        <defs>
            <clipPath id="clip0_98_1161">
                <rect width="39.339" height="45" fill="white" transform="translate(0 0.5)"/>
            </clipPath>
        </defs>
    </symbol>

    <symbol id="facebook" fill="currentColor" viewBox="0 0 18 18">
        <path d="M7.20005 16.2V9.00005H4.80005V6.60005H7.20005V5.31125C7.20005 2.87105 8.38865 1.80005 10.4166 1.80005C11.388 1.80005 11.9016 1.87205 12.1446 1.90505V4.20005H10.7616C9.90065 4.20005 9.60005 4.65425 9.60005 5.57465V6.60005H12.123L11.7804 9.00005H9.60005V16.2H7.20005Z" fill="currentColor" />
    </symbol>

    <symbol id="twitter" fill="currentColor" viewBox="0 0 18 18">
        <path d="M2.1311 2.16003L7.40946 9.85503L2.2429 15.84H3.38759L7.91501 10.5919L11.515 15.84H15.8399L10.3253 7.80121L15.1916 2.16003H14.0505L9.81907 7.06222L6.45603 2.16003H2.1311ZM3.49798 2.88003H6.07704L14.4731 15.12H11.894L3.49798 2.88003Z" fill="currentColor" />
    </symbol>

    <symbol id="instagram" fill="currentColor" viewBox="0 0 18 18">
        <path d="M5.76008 1.07996C3.17977 1.07996 1.08008 3.17965 1.08008 5.75996V12.24C1.08008 14.8203 3.17977 16.92 5.76008 16.92H12.2401C14.8204 16.92 16.9201 14.8203 16.9201 12.24V5.75996C16.9201 3.17965 14.8204 1.07996 12.2401 1.07996H5.76008ZM5.76008 1.79996H12.2401C14.4312 1.79996 16.2001 3.56882 16.2001 5.75996V12.24C16.2001 14.4311 14.4312 16.2 12.2401 16.2H5.76008C3.56894 16.2 1.80008 14.4311 1.80008 12.24V5.75996C1.80008 3.56882 3.56894 1.79996 5.76008 1.79996ZM13.3201 3.95996C13.1291 3.95996 12.946 4.03581 12.811 4.17084C12.6759 4.30587 12.6001 4.489 12.6001 4.67996C12.6001 4.87091 12.6759 5.05405 12.811 5.18907C12.946 5.3241 13.1291 5.39996 13.3201 5.39996C13.511 5.39996 13.6942 5.3241 13.8292 5.18907C13.9642 5.05405 14.0401 4.87091 14.0401 4.67996C14.0401 4.489 13.9642 4.30587 13.8292 4.17084C13.6942 4.03581 13.511 3.95996 13.3201 3.95996ZM9.00008 5.03996C6.81729 5.03996 5.04008 6.81717 5.04008 8.99996C5.04008 11.1827 6.81729 12.96 9.00008 12.96C11.1829 12.96 12.9601 11.1827 12.9601 8.99996C12.9601 6.81717 11.1829 5.03996 9.00008 5.03996ZM9.00008 5.75996C10.7937 5.75996 12.2401 7.20629 12.2401 8.99996C12.2401 10.7936 10.7937 12.24 9.00008 12.24C7.20641 12.24 5.76008 10.7936 5.76008 8.99996C5.76008 7.20629 7.20641 5.75996 9.00008 5.75996Z" fill="currentColor" />
    </symbol>

    <symbol id="pinterest" fill="currentColor" viewBox="0 0 18 18">
        <path d="M9.05273 2.25C6.19692 2.25 3.375 4.15312 3.375 7.2345C3.375 9.19368 4.47665 10.3074 5.1449 10.3074C5.42052 10.3074 5.57996 9.53902 5.57996 9.3219C5.57996 9.06315 4.91968 8.51164 4.91968 7.43445C4.91968 5.19682 6.62308 3.61121 8.82751 3.61121C10.7231 3.61121 12.1256 4.68763 12.1256 6.6665C12.1256 8.14419 11.5323 10.916 9.61194 10.916C8.91894 10.916 8.32654 10.4154 8.32654 9.69763C8.32654 8.64576 9 7.62688 9 6.54126C9 4.69851 6.44788 5.03283 6.44788 7.25977C6.44788 7.7272 6.50616 8.2446 6.71484 8.67041C6.33122 10.3236 5.625 12.9585 5.625 14.6624C5.625 15.1883 5.70018 15.7058 5.75024 16.2323C5.84474 16.338 5.79794 16.3269 5.9425 16.274C7.34538 14.3537 7.21523 13.8061 7.84973 11.2928C8.19229 11.9442 9.07749 12.2948 9.77893 12.2948C12.7349 12.2948 14.0625 9.41408 14.0625 6.81702C14.0625 4.05345 11.6745 2.25 9.05273 2.25Z" fill="currentColor" />
    </symbol>

    <symbol id="send" fill="currentColor" viewBox="0 0 16 16">
        <path d="M15.854.146a.5.5 0 0 1 .11.54l-5.819 14.547a.75.75 0 0 1-1.329.124l-3.178-4.995L.643 7.184a.75.75 0 0 1 .124-1.33L15.314.037a.5.5 0 0 1 .54.11ZM6.636 10.07l2.761 4.338L14.13 2.576zm6.787-8.201L1.591 6.602l4.339 2.76z" />
    </symbol>

    <symbol id="search" fill="currentColor" viewBox="0 0 16 16">
        <path d="M11.742 10.344a6.5 6.5 0 1 0-1.397 1.398h-.001q.044.06.098.115l3.85 3.85a1 1 0 0 0 1.415-1.414l-3.85-3.85a1 1 0 0 0-.115-.1zM12 6.5a5.5 5.5 0 1 1-11 0 5.5 5.5 0 0 1 11 0" />
    </symbol>

    <symbol id="cart" fill="currentColor" viewBox="0 0 16 16">
        <path d="M0 1.5A.5.5 0 0 1 .5 1H2a.5.5 0 0 1 .485.379L2.89 3H14.5a.5.5 0 0 1 .49.598l-1 5a.5.5 0 0 1-.465.401l-9.397.472L4.415 11H13a.5.5 0 0 1 0 1H4a.5.5 0 0 1-.491-.408L2.01 3.607 1.61 2H.5a.5.5 0 0 1-.5-.5M3.102 4l.84 4.479 9.144-.459L13.89 4zM5 12a2 2 0 1 0 0 4 2 2 0 0 0 0-4m7 0a2 2 0 1 0 0 4 2 2 0 0 0 0-4m-7 1a1 1 0 1 1 0 2 1 1 0 0 1 0-2m7 0a1 1 0 1 1 0 2 1 1 0 0 1 0-2" />
    </symbol>

    <symbol id="user" fill="currentColor" viewBox="0 0 16 16">
        <path d="M11 6a3 3 0 1 1-6 0 3 3 0 0 1 6 0" />
        <path fill-rule="evenodd" d="M0 8a8 8 0 1 1 16 0A8 8 0 0 1 0 8m8-7a7 7 0 0 0-5.468 11.37C3.242 11.226 4.805 10 8 10s4.757 1.225 5.468 2.37A7 7 0 0 0 8 1" />
    </symbol>

    <symbol id="chevronDown" fill="currentColor" viewBox="0 0 16 16">
        <path fill-rule="evenodd" d="M1.646 4.646a.5.5 0 0 1 .708 0L8 10.293l5.646-5.647a.5.5 0 0 1 .708.708l-6 6a.5.5 0 0 1-.708 0l-6-6a.5.5 0 0 1 0-.708" />
    </symbol>

    <symbol id="login" fill="currentColor" viewBox="0 0 16 16">
        <path fill-rule="evenodd" d="M6 3.5a.5.5 0 0 1 .5-.5h8a.5.5 0 0 1 .5.5v9a.5.5 0 0 1-.5.5h-8a.5.5 0 0 1-.5-.5v-2a.5.5 0 0 0-1 0v2A1.5 1.5 0 0 0 6.5 14h8a1.5 1.5 0 0 0 1.5-1.5v-9A1.5 1.5 0 0 0 14.5 2h-8A1.5 1.5 0 0 0 5 3.5v2a.5.5 0 0 0 1 0z" />
        <path fill-rule="evenodd" d="M11.854 8.354a.5.5 0 0 0 0-.708l-3-3a.5.5 0 1 0-.708.708L10.293 7.5H1.5a.5.5 0 0 0 0 1h8.793l-2.147 2.146a.5.5 0 0 0 .708.708z" />
    </symbol>

    <symbol id="logOut" fill="currentColor" viewBox="0 0 16 16">
        <path d="M7.5 1v7h1V1z" />
        <path d="M3 8.812a5 5 0 0 1 2.578-4.375l-.485-.874A6 6 0 1 0 11 3.616l-.501.865A5 5 0 1 1 3 8.812" />
    </symbol>

    <symbol id="wishlist" fill="currentColor" viewBox="0 0 16 16">
        <path fill-rule="evenodd" d="M10.5 3.5a2.5 2.5 0 0 0-5 0V4h5zm1 0V4H15v10a2 2 0 0 1-2 2H3a2 2 0 0 1-2-2V4h3.5v-.5a3.5 3.5 0 1 1 7 0M14 14V5H2v9a1 1 0 0 0 1 1h10a1 1 0 0 0 1-1M8 7.993c1.664-1.711 5.825 1.283 0 5.132-5.825-3.85-1.664-6.843 0-5.132" />
    </symbol>

    <symbol id="orders" fill="currentColor" viewBox="0 0 16 16">
        <path fill-rule="evenodd" d="M10.854 8.146a.5.5 0 0 1 0 .708l-3 3a.5.5 0 0 1-.708 0l-1.5-1.5a.5.5 0 0 1 .708-.708L7.5 10.793l2.646-2.647a.5.5 0 0 1 .708 0" />
        <path d="M8 1a2.5 2.5 0 0 1 2.5 2.5V4h-5v-.5A2.5 2.5 0 0 1 8 1m3.5 3v-.5a3.5 3.5 0 1 0-7 0V4H1v10a2 2 0 0 0 2 2h10a2 2 0 0 0 2-2V4zM2 5h12v9a1 1 0 0 1-1 1H3a1 1 0 0 1-1-1z" />
    </symbol>

    <symbol id="heart" fill="currentColor" viewBox="0 0 16 16">
        <path d="m8 2.748-.717-.737C5.6.281 2.514.878 1.4 3.053c-.523 1.023-.641 2.5.314 4.385.92 1.815 2.834 3.989 6.286 6.357 3.452-2.368 5.365-4.542 6.286-6.357.955-1.886.838-3.362.314-4.385C13.486.878 10.4.28 8.717 2.01zM8 15C-7.333 4.868 3.279-3.04 7.824 1.143q.09.083.176.171a3 3 0 0 1 .176-.17C12.72-3.042 23.333 4.867 8 15" />
    </symbol>

    <symbol id="heartFill" fill="currentColor" viewBox="0 0 16 16">
        <path fill-rule="evenodd" d="M8 1.314C12.438-3.248 23.534 4.735 8 15-7.534 4.736 3.562-3.248 8 1.314" />
    </symbol>

    <symbol id="share" fill="currentColor" viewBox="0 0 16 16">
        <path d="M11 2.5a2.5 2.5 0 1 1 .603 1.628l-6.718 3.12a2.5 2.5 0 0 1 0 1.504l6.718 3.12a2.5 2.5 0 1 1-.488.876l-6.718-3.12a2.5 2.5 0 1 1 0-3.256l6.718-3.12A2.5 2.5 0 0 1 11 2.5" />
    </symbol>

    <symbol id="starHalf" fill="currentColor" viewBox="0 0 16 16">
        <path d="M5.354 5.119 7.538.792A.52.52 0 0 1 8 .5c.183 0 .366.097.465.292l2.184 4.327 4.898.696A.54.54 0 0 1 16 6.32a.55.55 0 0 1-.17.445l-3.523 3.356.83 4.73c.078.443-.36.79-.746.592L8 13.187l-4.389 2.256a.5.5 0 0 1-.146.05c-.342.06-.668-.254-.6-.642l.83-4.73L.173 6.765a.55.55 0 0 1-.172-.403.6.6 0 0 1 .085-.302.51.51 0 0 1 .37-.245zM8 12.027a.5.5 0 0 1 .232.056l3.686 1.894-.694-3.957a.56.56 0 0 1 .162-.505l2.907-2.77-4.052-.576a.53.53 0 0 1-.393-.288L8.001 2.223 8 2.226z" />
    </symbol>

    <symbol id="plus" fill="currentColor" viewBox="0 0 16 16">
        <path d="M8 4a.5.5 0 0 1 .5.5v3h3a.5.5 0 0 1 0 1h-3v3a.5.5 0 0 1-1 0v-3h-3a.5.5 0 0 1 0-1h3v-3A.5.5 0 0 1 8 4" />
    </symbol>

    <symbol id="minus" fill="currentColor" viewBox="0 0 16 16">
        <path d="M4 8a.5.5 0 0 1 .5-.5h7a.5.5 0 0 1 0 1h-7A.5.5 0 0 1 4 8" />
    </symbol>

    <symbol id="flag" fill="currentColor" viewBox="0 0 16 16">
        <path d="M14.778.085A.5.5 0 0 1 15 .5V8a.5.5 0 0 1-.314.464L14.5 8l.186.464-.003.001-.006.003-.023.009a12 12 0 0 1-.397.15c-.264.095-.631.223-1.047.35-.816.252-1.879.523-2.71.523-.847 0-1.548-.28-2.158-.525l-.028-.01C7.68 8.71 7.14 8.5 6.5 8.5c-.7 0-1.638.23-2.437.477A20 20 0 0 0 3 9.342V15.5a.5.5 0 0 1-1 0V.5a.5.5 0 0 1 1 0v.282c.226-.079.496-.17.79-.26C4.606.272 5.67 0 6.5 0c.84 0 1.524.277 2.121.519l.043.018C9.286.788 9.828 1 10.5 1c.7 0 1.638-.23 2.437-.477a20 20 0 0 0 1.349-.476l.019-.007.004-.002h.001" />
    </symbol>

    <symbol id="gridView" fill="currentColor" viewBox="0 0 16 16">
        <path d="M1 2.5A1.5 1.5 0 0 1 2.5 1h3A1.5 1.5 0 0 1 7 2.5v3A1.5 1.5 0 0 1 5.5 7h-3A1.5 1.5 0 0 1 1 5.5zM2.5 2a.5.5 0 0 0-.5.5v3a.5.5 0 0 0 .5.5h3a.5.5 0 0 0 .5-.5v-3a.5.5 0 0 0-.5-.5zm6.5.5A1.5 1.5 0 0 1 10.5 1h3A1.5 1.5 0 0 1 15 2.5v3A1.5 1.5 0 0 1 13.5 7h-3A1.5 1.5 0 0 1 9 5.5zm1.5-.5a.5.5 0 0 0-.5.5v3a.5.5 0 0 0 .5.5h3a.5.5 0 0 0 .5-.5v-3a.5.5 0 0 0-.5-.5zM1 10.5A1.5 1.5 0 0 1 2.5 9h3A1.5 1.5 0 0 1 7 10.5v3A1.5 1.5 0 0 1 5.5 15h-3A1.5 1.5 0 0 1 1 13.5zm1.5-.5a.5.5 0 0 0-.5.5v3a.5.5 0 0 0 .5.5h3a.5.5 0 0 0 .5-.5v-3a.5.5 0 0 0-.5-.5zm6.5.5A1.5 1.5 0 0 1 10.5 9h3a1.5 1.5 0 0 1 1.5 1.5v3a1.5 1.5 0 0 1-1.5 1.5h-3A1.5 1.5 0 0 1 9 13.5zm1.5-.5a.5.5 0 0 0-.5.5v3a.5.5 0 0 0 .5.5h3a.5.5 0 0 0 .5-.5v-3a.5.5 0 0 0-.5-.5z" />
    </symbol>

    <symbol id="listView" fill="currentColor" viewBox="0 0 16 16">
        <path fill-rule="evenodd" d="M2 2.5a.5.5 0 0 0-.5.5v1a.5.5 0 0 0 .5.5h1a.5.5 0 0 0 .5-.5V3a.5.5 0 0 0-.5-.5zM3 3H2v1h1z" />
        <path d="M5 3.5a.5.5 0 0 1 .5-.5h9a.5.5 0 0 1 0 1h-9a.5.5 0 0 1-.5-.5M5.5 7a.5.5 0 0 0 0 1h9a.5.5 0 0 0 0-1zm0 4a.5.5 0 0 0 0 1h9a.5.5 0 0 0 0-1z" />
        <path fill-rule="evenodd" d="M1.5 7a.5.5 0 0 1 .5-.5h1a.5.5 0 0 1 .5.5v1a.5.5 0 0 1-.5.5H2a.5.5 0 0 1-.5-.5zM2 7h1v1H2zm0 3.5a.5.5 0 0 0-.5.5v1a.5.5 0 0 0 .5.5h1a.5.5 0 0 0 .5-.5v-1a.5.5 0 0 0-.5-.5zm1 .5H2v1h1z" />
    </symbol>

    <symbol id="delete" fill="currentColor" viewBox="0 0 16 16">
        <path d="M5.5 5.5A.5.5 0 0 1 6 6v6a.5.5 0 0 1-1 0V6a.5.5 0 0 1 .5-.5m2.5 0a.5.5 0 0 1 .5.5v6a.5.5 0 0 1-1 0V6a.5.5 0 0 1 .5-.5m3 .5a.5.5 0 0 0-1 0v6a.5.5 0 0 0 1 0z" />
        <path d="M14.5 3a1 1 0 0 1-1 1H13v9a2 2 0 0 1-2 2H5a2 2 0 0 1-2-2V4h-.5a1 1 0 0 1-1-1V2a1 1 0 0 1 1-1H6a1 1 0 0 1 1-1h2a1 1 0 0 1 1 1h3.5a1 1 0 0 1 1 1zM4.118 4 4 4.059V13a1 1 0 0 0 1 1h6a1 1 0 0 0 1-1V4.059L11.882 4zM2.5 3h11V2h-11z" />
    </symbol>

    <symbol id="tag" fill="currentColor" viewBox="0 0 16 16">
        <path d="M6 4.5a1.5 1.5 0 1 1-3 0 1.5 1.5 0 0 1 3 0m-1 0a.5.5 0 1 0-1 0 .5.5 0 0 0 1 0" />
        <path d="M2 1h4.586a1 1 0 0 1 .707.293l7 7a1 1 0 0 1 0 1.414l-4.586 4.586a1 1 0 0 1-1.414 0l-7-7A1 1 0 0 1 1 6.586V2a1 1 0 0 1 1-1m0 5.586 7 7L13.586 9l-7-7H2z" />
    </symbol>

    <symbol id="exclamationDiamond" fill="currentColor" viewBox="0 0 16 16">
        <path d="M9.05.435c-.58-.58-1.52-.58-2.1 0L.436 6.95c-.58.58-.58 1.519 0 2.098l6.516 6.516c.58.58 1.519.58 2.098 0l6.516-6.516c.58-.58.58-1.519 0-2.098zM8 4c.535 0 .954.462.9.995l-.35 3.507a.552.552 0 0 1-1.1 0L7.1 4.995A.905.905 0 0 1 8 4m.002 6a1 1 0 1 1 0 2 1 1 0 0 1 0-2" />
    </symbol>

    <symbol id="checkCircle" fill="currentColor" viewBox="0 0 16 16">
        <path d="M2.5 8a5.5 5.5 0 0 1 8.25-4.764.5.5 0 0 0 .5-.866A6.5 6.5 0 1 0 14.5 8a.5.5 0 0 0-1 0 5.5 5.5 0 1 1-11 0" />
        <path d="M15.354 3.354a.5.5 0 0 0-.708-.708L8 9.293 5.354 6.646a.5.5 0 1 0-.708.708l3 3a.5.5 0 0 0 .708 0z" />
    </symbol>

    <symbol id="eye" fill="currentColor" viewBox="0 0 16 16">
        <path d="M16 8s-3-5.5-8-5.5S0 8 0 8s3 5.5 8 5.5S16 8 16 8M1.173 8a13 13 0 0 1 1.66-2.043C4.12 4.668 5.88 3.5 8 3.5s3.879 1.168 5.168 2.457A13 13 0 0 1 14.828 8q-.086.13-.195.288c-.335.48-.83 1.12-1.465 1.755C11.879 11.332 10.119 12.5 8 12.5s-3.879-1.168-5.168-2.457A13 13 0 0 1 1.172 8z" />
        <path d="M8 5.5a2.5 2.5 0 1 0 0 5 2.5 2.5 0 0 0 0-5M4.5 8a3.5 3.5 0 1 1 7 0 3.5 3.5 0 0 1-7 0" />
    </symbol>

    <symbol id="eyeSlash" fill="currentColor" viewBox="0 0 16 16">
        <path d="M13.359 11.238C15.06 9.72 16 8 16 8s-3-5.5-8-5.5a7 7 0 0 0-2.79.588l.77.771A6 6 0 0 1 8 3.5c2.12 0 3.879 1.168 5.168 2.457A13 13 0 0 1 14.828 8q-.086.13-.195.288c-.335.48-.83 1.12-1.465 1.755q-.247.248-.517.486z" />
        <path d="M11.297 9.176a3.5 3.5 0 0 0-4.474-4.474l.823.823a2.5 2.5 0 0 1 2.829 2.829zm-2.943 1.299.822.822a3.5 3.5 0 0 1-4.474-4.474l.823.823a2.5 2.5 0 0 0 2.829 2.829" />
        <path d="M3.35 5.47q-.27.24-.518.487A13 13 0 0 0 1.172 8l.195.288c.335.48.83 1.12 1.465 1.755C4.121 11.332 5.881 12.5 8 12.5c.716 0 1.39-.133 2.02-.36l.77.772A7 7 0 0 1 8 13.5C3 13.5 0 8 0 8s.939-1.721 2.641-3.238l.708.709zm10.296 8.884-12-12 .708-.708 12 12z" />
    </symbol>

    <symbol id="print" fill="currentColor" viewBox="0 0 16 16">
        <path d="M2.5 8a.5.5 0 1 0 0-1 .5.5 0 0 0 0 1" />
        <path d="M5 1a2 2 0 0 0-2 2v2H2a2 2 0 0 0-2 2v3a2 2 0 0 0 2 2h1v1a2 2 0 0 0 2 2h6a2 2 0 0 0 2-2v-1h1a2 2 0 0 0 2-2V7a2 2 0 0 0-2-2h-1V3a2 2 0 0 0-2-2zM4 3a1 1 0 0 1 1-1h6a1 1 0 0 1 1 1v2H4zm1 5a2 2 0 0 0-2 2v1H2a1 1 0 0 1-1-1V7a1 1 0 0 1 1-1h12a1 1 0 0 1 1 1v3a1 1 0 0 1-1 1h-1v-1a2 2 0 0 0-2-2zm7 2v3a1 1 0 0 1-1 1H5a1 1 0 0 1-1-1v-3a1 1 0 0 1 1-1h6a1 1 0 0 1 1 1" />
    </symbol>

    <symbol id="save" fill="currentColor" viewBox="0 0 16 16">
        <path d="M11 2H9v3h2z" />
        <path d="M1.5 0h11.586a1.5 1.5 0 0 1 1.06.44l1.415 1.414A1.5 1.5 0 0 1 16 2.914V14.5a1.5 1.5 0 0 1-1.5 1.5h-13A1.5 1.5 0 0 1 0 14.5v-13A1.5 1.5 0 0 1 1.5 0M1 1.5v13a.5.5 0 0 0 .5.5H2v-4.5A1.5 1.5 0 0 1 3.5 9h9a1.5 1.5 0 0 1 1.5 1.5V15h.5a.5.5 0 0 0 .5-.5V2.914a.5.5 0 0 0-.146-.353l-1.415-1.415A.5.5 0 0 0 13.086 1H13v4.5A1.5 1.5 0 0 1 11.5 7h-7A1.5 1.5 0 0 1 3 5.5V1H1.5a.5.5 0 0 0-.5.5m3 4a.5.5 0 0 0 .5.5h7a.5.5 0 0 0 .5-.5V1H4zM3 15h10v-4.5a.5.5 0 0 0-.5-.5h-9a.5.5 0 0 0-.5.5z" />
    </symbol>

</svg>